<svg id="visual" viewBox="0 0 900 600" width="900" height="600" xmlns="http://www.w3.org/2000/svg" xmlns:xlink="http://www.w3.org/1999/xlink" version="1.1"><rect x="0" y="0" width="900" height="600" fill="#001220"></rect><defs><linearGradient id="grad1_0" x1="33.3%" y1="0%" x2="100%" y2="100%"><stop offset="20%" stop-color="#fcaf3c" stop-opacity="1"></stop><stop offset="80%" stop-color="#fcaf3c" stop-opacity="1"></stop></linearGradient></defs><defs><linearGradient id="grad1_1" x1="33.3%" y1="0%" x2="100%" y2="100%"><stop offset="20%" stop-color="#fcaf3c" stop-opacity="1"></stop><stop offset="80%" stop-color="#cd5867" stop-opacity="1"></stop></linearGradient></defs><defs><linearGradient id="grad1_2" x1="33.3%" y1="0%" x2="100%" y2="100%"><stop offset="20%" stop-color="#5a3763" stop-opacity="1"></stop><stop offset="80%" stop-color="#cd5867" stop-opacity="1"></stop></linearGradient></defs><defs><linearGradient id="grad1_3" x1="33.3%" y1="0%" x2="100%" y2="100%"><stop offset="20%" stop-color="#5a3763" stop-opacity="1"></stop><stop offset="80%" stop-color="#001220" stop-opacity="1"></stop></linearGradient></defs><defs><linearGradient id="grad2_0" x1="0%" y1="0%" x2="66.7%" y2="100%"><stop offset="20%" stop-color="#fcaf3c" stop-opacity="1"></stop><stop offset="80%" stop-color="#fcaf3c" stop-opacity="1"></stop></linearGradient></defs><defs><linearGradient id="grad2_1" x1="0%" y1="0%" x2="66.7%" y2="100%"><stop offset="20%" stop-color="#cd5867" stop-opacity="1"></stop><stop offset="80%" stop-color="#fcaf3c" stop-opacity="1"></stop></linearGradient></defs><defs><linearGradient id="grad2_2" x1="0%" y1="0%" x2="66.7%" y2="100%"><stop offset="20%" stop-color="#cd5867" stop-opacity="1"></stop><stop offset="80%" stop-color="#5a3763" stop-opacity="1"></stop></linearGradient></defs><defs><linearGradient id="grad2_3" x1="0%" y1="0%" x2="66.7%" y2="100%"><stop offset="20%" stop-color="#001220" stop-opacity="1"></stop><stop offset="80%" stop-color="#5a3763" stop-opacity="1"></stop></linearGradient></defs><g transform="translate(900, 0)"><path d="M0 486.7C-64.1 481.6 -128.3 476.5 -186.3 449.7C-244.3 422.9 -296.2 374.3 -319.6 319.6C-343.1 264.9 -338.1 203.9 -361.2 149.6C-384.4 95.3 -435.6 47.7 -486.7 0L0 0Z" fill="#242746"></path><path d="M0 365.1C-48.1 361.2 -96.2 357.4 -139.7 337.3C-183.2 317.2 -222.1 280.8 -239.7 239.7C-257.3 198.7 -253.6 152.9 -270.9 112.2C-288.3 71.5 -326.7 35.7 -365.1 0L0 0Z" fill="#97446e"></path><path d="M0 243.4C-32.1 240.8 -64.1 238.3 -93.1 224.8C-122.1 211.4 -148.1 187.2 -159.8 159.8C-171.5 132.4 -169.1 102 -180.6 74.8C-192.2 47.7 -217.8 23.8 -243.4 0L0 0Z" fill="#f27d53"></path><path d="M0 121.7C-16 120.4 -32.1 119.1 -46.6 112.4C-61.1 105.7 -74 93.6 -79.9 79.9C-85.8 66.2 -84.5 51 -90.3 37.4C-96.1 23.8 -108.9 11.9 -121.7 0L0 0Z" fill="#fcaf3c"></path></g><g transform="translate(0, 600)"><path d="M0 -486.7C59.6 -465.7 119.1 -444.7 173.7 -419.4C228.3 -394.2 278 -364.7 326.7 -326.7C375.4 -288.7 423.2 -242.1 449.7 -186.3C476.2 -130.4 481.5 -65.2 486.7 0L0 0Z" fill="#242746"></path><path d="M0 -365.1C44.7 -349.3 89.4 -333.5 130.3 -314.6C171.3 -295.6 208.5 -273.5 245 -245C281.5 -216.5 317.4 -181.6 337.3 -139.7C357.2 -97.8 361.1 -48.9 365.1 0L0 0Z" fill="#97446e"></path><path d="M0 -243.4C29.8 -232.9 59.6 -222.3 86.9 -209.7C114.2 -197.1 139 -182.3 163.3 -163.3C187.7 -144.3 211.6 -121.1 224.8 -93.1C238.1 -65.2 240.7 -32.6 243.4 0L0 0Z" fill="#f27d53"></path><path d="M0 -121.7C14.9 -116.4 29.8 -111.2 43.4 -104.9C57.1 -98.5 69.5 -91.2 81.7 -81.7C93.8 -72.2 105.8 -60.5 112.4 -46.6C119.1 -32.6 120.4 -16.3 121.7 0L0 0Z" fill="#fcaf3c"></path></g></svg>