<svg id="visual" viewBox="0 0 900 600" width="900" height="600" xmlns="http://www.w3.org/2000/svg" xmlns:xlink="http://www.w3.org/1999/xlink" version="1.1"><rect x="0" y="0" width="900" height="600" fill="#140021"></rect><path d="M572 0L500 0L500 67L589 67L589 133L486 133L486 200L626 200L626 267L594 267L594 333L608 333L608 400L485 400L485 467L531 467L531 533L474 533L474 600L0 600L0 533L0 533L0 467L0 467L0 400L0 400L0 333L0 333L0 267L0 267L0 200L0 200L0 133L0 133L0 67L0 67L0 0L0 0Z" fill="#715df2"></path><path d="M468 0L387 0L387 67L413 67L413 133L397 133L397 200L517 200L517 267L405 267L405 333L511 333L511 400L427 400L427 467L376 467L376 533L523 533L523 600L0 600L0 533L0 533L0 467L0 467L0 400L0 400L0 333L0 333L0 267L0 267L0 200L0 200L0 133L0 133L0 67L0 67L0 0L0 0Z" fill="#cb46cb"></path><path d="M373 0L402 0L402 67L311 67L311 133L387 133L387 200L343 200L343 267L302 267L302 333L399 333L399 400L348 400L348 467L404 467L404 533L332 533L332 600L0 600L0 533L0 533L0 467L0 467L0 400L0 400L0 333L0 333L0 267L0 267L0 200L0 200L0 133L0 133L0 67L0 67L0 0L0 0Z" fill="#f5419e"></path><path d="M275 0L331 0L331 67L316 67L316 133L233 133L233 200L314 200L314 267L326 267L326 333L327 333L327 400L298 400L298 467L339 467L339 533L239 533L239 600L0 600L0 533L0 533L0 467L0 467L0 400L0 400L0 333L0 333L0 267L0 267L0 200L0 200L0 133L0 133L0 67L0 67L0 0L0 0Z" fill="#ff5a74"></path><path d="M148 0L231 0L231 67L155 67L155 133L217 133L217 200L169 200L169 267L177 267L177 333L194 333L194 400L135 400L135 467L141 467L141 533L190 533L190 600L0 600L0 533L0 533L0 467L0 467L0 400L0 400L0 333L0 333L0 267L0 267L0 200L0 200L0 133L0 133L0 67L0 67L0 0L0 0Z" fill="#ff8450"></path><path d="M72 0L150 0L150 67L58 67L58 133L66 133L66 200L93 200L93 267L63 267L63 333L138 333L138 400L54 400L54 467L62 467L62 533L150 533L150 600L0 600L0 533L0 533L0 467L0 467L0 400L0 400L0 333L0 333L0 267L0 267L0 200L0 200L0 133L0 133L0 67L0 67L0 0L0 0Z" fill="#fcaf3c"></path></svg>