<svg id="visual" viewBox="0 0 900 600" width="900" height="600" xmlns="http://www.w3.org/2000/svg" xmlns:xlink="http://www.w3.org/1999/xlink" version="1.1"><rect x="0" y="0" width="900" height="600" fill="#24005a"></rect><path d="M0 433L129 360L257 399L386 428L514 380L643 414L771 359L900 371L900 601L771 601L643 601L514 601L386 601L257 601L129 601L0 601Z" fill="#715df2"></path><path d="M0 475L129 399L257 406L386 431L514 410L643 474L771 463L900 446L900 601L771 601L643 601L514 601L386 601L257 601L129 601L0 601Z" fill="#d942c0"></path><path d="M0 472L129 455L257 509L386 450L514 508L643 442L771 474L900 464L900 601L771 601L643 601L514 601L386 601L257 601L129 601L0 601Z" fill="#ff4a88"></path><path d="M0 533L129 515L257 521L386 502L514 485L643 511L771 526L900 486L900 601L771 601L643 601L514 601L386 601L257 601L129 601L0 601Z" fill="#ff7958"></path><path d="M0 530L129 537L257 547L386 546L514 569L643 536L771 543L900 542L900 601L771 601L643 601L514 601L386 601L257 601L129 601L0 601Z" fill="#fcaf3c"></path></svg>