<svg id="visual" viewBox="0 0 900 600" width="900" height="600" xmlns="http://www.w3.org/2000/svg" xmlns:xlink="http://www.w3.org/1999/xlink" version="1.1"><rect x="0" y="0" width="900" height="600" fill="#001220"></rect><path d="M0 388L21.5 389.5C43 391 86 394 128.8 400.5C171.7 407 214.3 417 257.2 422C300 427 343 427 385.8 414.8C428.7 402.7 471.3 378.3 514.2 379.5C557 380.7 600 407.3 642.8 414.2C685.7 421 728.3 408 771.2 405.2C814 402.3 857 409.7 878.5 413.3L900 417L900 601L878.5 601C857 601 814 601 771.2 601C728.3 601 685.7 601 642.8 601C600 601 557 601 514.2 601C471.3 601 428.7 601 385.8 601C343 601 300 601 257.2 601C214.3 601 171.7 601 128.8 601C86 601 43 601 21.5 601L0 601Z" fill="#715df2"></path><path d="M0 397L21.5 405.3C43 413.7 86 430.3 128.8 434.8C171.7 439.3 214.3 431.7 257.2 431.3C300 431 343 438 385.8 433.7C428.7 429.3 471.3 413.7 514.2 416.3C557 419 600 440 642.8 448.2C685.7 456.3 728.3 451.7 771.2 444.2C814 436.7 857 426.3 878.5 421.2L900 416L900 601L878.5 601C857 601 814 601 771.2 601C728.3 601 685.7 601 642.8 601C600 601 557 601 514.2 601C471.3 601 428.7 601 385.8 601C343 601 300 601 257.2 601C214.3 601 171.7 601 128.8 601C86 601 43 601 21.5 601L0 601Z" fill="#d942c0"></path><path d="M0 437L21.5 438.5C43 440 86 443 128.8 450.3C171.7 457.7 214.3 469.3 257.2 469.2C300 469 343 457 385.8 460.3C428.7 463.7 471.3 482.3 514.2 493.3C557 504.3 600 507.7 642.8 501.3C685.7 495 728.3 479 771.2 472.8C814 466.7 857 470.3 878.5 472.2L900 474L900 601L878.5 601C857 601 814 601 771.2 601C728.3 601 685.7 601 642.8 601C600 601 557 601 514.2 601C471.3 601 428.7 601 385.8 601C343 601 300 601 257.2 601C214.3 601 171.7 601 128.8 601C86 601 43 601 21.5 601L0 601Z" fill="#ff4a88"></path><path d="M0 489L21.5 488.7C43 488.3 86 487.7 128.8 493.8C171.7 500 214.3 513 257.2 521.3C300 529.7 343 533.3 385.8 533C428.7 532.7 471.3 528.3 514.2 522.5C557 516.7 600 509.3 642.8 509.3C685.7 509.3 728.3 516.7 771.2 521.8C814 527 857 530 878.5 531.5L900 533L900 601L878.5 601C857 601 814 601 771.2 601C728.3 601 685.7 601 642.8 601C600 601 557 601 514.2 601C471.3 601 428.7 601 385.8 601C343 601 300 601 257.2 601C214.3 601 171.7 601 128.8 601C86 601 43 601 21.5 601L0 601Z" fill="#ff7958"></path><path d="M0 568L21.5 569C43 570 86 572 128.8 566.5C171.7 561 214.3 548 257.2 546.2C300 544.3 343 553.7 385.8 559.2C428.7 564.7 471.3 566.3 514.2 567.2C557 568 600 568 642.8 566.5C685.7 565 728.3 562 771.2 555C814 548 857 537 878.5 531.5L900 526L900 601L878.5 601C857 601 814 601 771.2 601C728.3 601 685.7 601 642.8 601C600 601 557 601 514.2 601C471.3 601 428.7 601 385.8 601C343 601 300 601 257.2 601C214.3 601 171.7 601 128.8 601C86 601 43 601 21.5 601L0 601Z" fill="#fcaf3c"></path></svg>