<svg id="visual" viewBox="0 0 900 600" width="900" height="600" xmlns="http://www.w3.org/2000/svg" xmlns:xlink="http://www.w3.org/1999/xlink" version="1.1"><g stroke-width="1" stroke-linejoin="bevel"><path d="M418 263L458 194L412 213Z" fill="#ff6e61" stroke="#ff6e61"></path><path d="M418 263L507 237L458 194Z" fill="#ff4a88" stroke="#ff4a88"></path><path d="M412 213L361 300L418 263Z" fill="#ff5a74" stroke="#ff5a74"></path><path d="M418 263L530 326L507 237Z" fill="#ff8450" stroke="#ff8450"></path><path d="M491 124L474 128L458 194Z" fill="#ff8450" stroke="#ff8450"></path><path d="M458 194L448 111L412 213Z" fill="#ff9a43" stroke="#ff9a43"></path><path d="M507 237L491 124L458 194Z" fill="#fcaf3c" stroke="#fcaf3c"></path><path d="M309 231L343 297L361 300Z" fill="#ff6e61" stroke="#ff6e61"></path><path d="M309 231L361 300L412 213Z" fill="#ff6e61" stroke="#ff6e61"></path><path d="M491 124L448 111L474 128Z" fill="#ff6e61" stroke="#ff6e61"></path><path d="M474 128L448 111L458 194Z" fill="#a751e0" stroke="#a751e0"></path><path d="M487 379L530 326L418 263Z" fill="#fcaf3c" stroke="#fcaf3c"></path><path d="M507 237L633 195L491 124Z" fill="#e53fb4" stroke="#e53fb4"></path><path d="M530 326L556 306L507 237Z" fill="#ff5a74" stroke="#ff5a74"></path><path d="M448 111L332 167L412 213Z" fill="#715df2" stroke="#715df2"></path><path d="M332 167L309 231L412 213Z" fill="#cb46cb" stroke="#cb46cb"></path><path d="M556 306L593 253L507 237Z" fill="#a751e0" stroke="#a751e0"></path><path d="M403 390L418 263L361 300Z" fill="#fcaf3c" stroke="#fcaf3c"></path><path d="M403 390L487 379L418 263Z" fill="#ff9a43" stroke="#ff9a43"></path><path d="M530 326L559 400L556 306Z" fill="#a751e0" stroke="#a751e0"></path><path d="M335 388L403 390L361 300Z" fill="#ff6e61" stroke="#ff6e61"></path><path d="M344 64L312 135L332 167Z" fill="#715df2" stroke="#715df2"></path><path d="M332 167L312 135L309 231Z" fill="#f5419e" stroke="#f5419e"></path><path d="M610 100L498 68L491 124Z" fill="#e53fb4" stroke="#e53fb4"></path><path d="M491 124L498 68L448 111Z" fill="#ff5a74" stroke="#ff5a74"></path><path d="M448 111L344 64L332 167Z" fill="#f5419e" stroke="#f5419e"></path><path d="M593 253L633 195L507 237Z" fill="#715df2" stroke="#715df2"></path><path d="M270 330L335 388L343 297Z" fill="#fcaf3c" stroke="#fcaf3c"></path><path d="M343 297L335 388L361 300Z" fill="#fcaf3c" stroke="#fcaf3c"></path><path d="M368 436L430 430L403 390Z" fill="#a751e0" stroke="#a751e0"></path><path d="M403 390L430 430L487 379Z" fill="#715df2" stroke="#715df2"></path><path d="M211 179L251 264L309 231Z" fill="#cb46cb" stroke="#cb46cb"></path><path d="M309 231L251 264L343 297Z" fill="#cb46cb" stroke="#cb46cb"></path><path d="M399 0L344 64L448 111Z" fill="#f5419e" stroke="#f5419e"></path><path d="M312 135L211 179L309 231Z" fill="#ff6e61" stroke="#ff6e61"></path><path d="M564 486L559 400L487 379Z" fill="#f5419e" stroke="#f5419e"></path><path d="M487 379L559 400L530 326Z" fill="#ff9a43" stroke="#ff9a43"></path><path d="M556 306L669 270L593 253Z" fill="#715df2" stroke="#715df2"></path><path d="M593 253L669 270L633 195Z" fill="#cb46cb" stroke="#cb46cb"></path><path d="M251 264L270 330L343 297Z" fill="#a751e0" stroke="#a751e0"></path><path d="M633 195L620 118L491 124Z" fill="#fcaf3c" stroke="#fcaf3c"></path><path d="M620 118L610 100L491 124Z" fill="#f5419e" stroke="#f5419e"></path><path d="M329 416L368 436L335 388Z" fill="#ff8450" stroke="#ff8450"></path><path d="M335 388L368 436L403 390Z" fill="#ff8450" stroke="#ff8450"></path><path d="M270 330L329 416L335 388Z" fill="#a751e0" stroke="#a751e0"></path><path d="M714 333L669 270L556 306Z" fill="#ff5a74" stroke="#ff5a74"></path><path d="M633 195L704 187L620 118Z" fill="#ff9a43" stroke="#ff9a43"></path><path d="M399 0L324 40L344 64Z" fill="#cb46cb" stroke="#cb46cb"></path><path d="M344 64L324 40L312 135Z" fill="#ff5a74" stroke="#ff5a74"></path><path d="M534 0L420 0L498 68Z" fill="#ff4a88" stroke="#ff4a88"></path><path d="M498 68L420 0L448 111Z" fill="#cb46cb" stroke="#cb46cb"></path><path d="M420 0L399 0L448 111Z" fill="#e53fb4" stroke="#e53fb4"></path><path d="M198 99L211 179L312 135Z" fill="#ff4a88" stroke="#ff4a88"></path><path d="M251 264L199 358L270 330Z" fill="#ff4a88" stroke="#ff4a88"></path><path d="M610 100L534 0L498 68Z" fill="#ff9a43" stroke="#ff9a43"></path><path d="M669 270L704 187L633 195Z" fill="#e53fb4" stroke="#e53fb4"></path><path d="M699 62L640 0L610 100Z" fill="#f5419e" stroke="#f5419e"></path><path d="M610 100L640 0L534 0Z" fill="#ff5a74" stroke="#ff5a74"></path><path d="M399 0L318 0L324 40Z" fill="#ff8450" stroke="#ff8450"></path><path d="M324 40L198 99L312 135Z" fill="#ff9a43" stroke="#ff9a43"></path><path d="M430 430L564 486L487 379Z" fill="#ff8450" stroke="#ff8450"></path><path d="M559 400L714 333L556 306Z" fill="#ff9a43" stroke="#ff9a43"></path><path d="M431 543L564 486L430 430Z" fill="#a751e0" stroke="#a751e0"></path><path d="M158 359L199 358L128 282Z" fill="#f5419e" stroke="#f5419e"></path><path d="M270 330L265 468L329 416Z" fill="#ff4a88" stroke="#ff4a88"></path><path d="M329 416L299 498L368 436Z" fill="#ff8450" stroke="#ff8450"></path><path d="M251 0L198 99L324 40Z" fill="#ff5a74" stroke="#ff5a74"></path><path d="M211 179L135 214L251 264Z" fill="#ff8450" stroke="#ff8450"></path><path d="M722 410L714 333L559 400Z" fill="#ff6e61" stroke="#ff6e61"></path><path d="M669 270L764 207L704 187Z" fill="#e53fb4" stroke="#e53fb4"></path><path d="M714 333L719 323L669 270Z" fill="#fcaf3c" stroke="#fcaf3c"></path><path d="M251 0L196 98L198 99Z" fill="#715df2" stroke="#715df2"></path><path d="M198 99L196 98L211 179Z" fill="#a751e0" stroke="#a751e0"></path><path d="M199 358L265 468L270 330Z" fill="#ff5a74" stroke="#ff5a74"></path><path d="M368 436L431 543L430 430Z" fill="#e53fb4" stroke="#e53fb4"></path><path d="M265 468L299 498L329 416Z" fill="#fcaf3c" stroke="#fcaf3c"></path><path d="M699 62L610 100L620 118Z" fill="#ff8450" stroke="#ff8450"></path><path d="M747 127L620 118L704 187Z" fill="#fcaf3c" stroke="#fcaf3c"></path><path d="M747 127L699 62L620 118Z" fill="#cb46cb" stroke="#cb46cb"></path><path d="M564 486L637 473L559 400Z" fill="#ff8450" stroke="#ff8450"></path><path d="M318 0L251 0L324 40Z" fill="#ff6e61" stroke="#ff6e61"></path><path d="M365 537L431 543L368 436Z" fill="#f5419e" stroke="#f5419e"></path><path d="M564 486L650 533L637 473Z" fill="#fcaf3c" stroke="#fcaf3c"></path><path d="M699 62L653 0L640 0Z" fill="#fcaf3c" stroke="#fcaf3c"></path><path d="M117 106L135 214L211 179Z" fill="#ff4a88" stroke="#ff4a88"></path><path d="M299 498L365 537L368 436Z" fill="#fcaf3c" stroke="#fcaf3c"></path><path d="M128 282L199 358L251 264Z" fill="#fcaf3c" stroke="#fcaf3c"></path><path d="M199 358L203 459L265 468Z" fill="#715df2" stroke="#715df2"></path><path d="M719 323L764 207L669 270Z" fill="#ff8450" stroke="#ff8450"></path><path d="M764 207L747 127L704 187Z" fill="#cb46cb" stroke="#cb46cb"></path><path d="M135 214L128 282L251 264Z" fill="#fcaf3c" stroke="#fcaf3c"></path><path d="M714 333L791 314L719 323Z" fill="#ff6e61" stroke="#ff6e61"></path><path d="M719 323L791 314L764 207Z" fill="#fcaf3c" stroke="#fcaf3c"></path><path d="M637 473L722 410L559 400Z" fill="#f5419e" stroke="#f5419e"></path><path d="M265 468L273 575L299 498Z" fill="#ff8450" stroke="#ff8450"></path><path d="M342 600L392 600L365 537Z" fill="#fcaf3c" stroke="#fcaf3c"></path><path d="M136 402L203 459L199 358Z" fill="#a751e0" stroke="#a751e0"></path><path d="M431 543L502 573L564 486Z" fill="#a751e0" stroke="#a751e0"></path><path d="M493 600L502 573L431 543Z" fill="#ff8450" stroke="#ff8450"></path><path d="M637 473L698 469L722 410Z" fill="#ff4a88" stroke="#ff4a88"></path><path d="M703 480L698 469L637 473Z" fill="#f5419e" stroke="#f5419e"></path><path d="M874 396L791 314L722 410Z" fill="#cb46cb" stroke="#cb46cb"></path><path d="M722 410L791 314L714 333Z" fill="#a751e0" stroke="#a751e0"></path><path d="M797 106L758 66L747 127Z" fill="#cb46cb" stroke="#cb46cb"></path><path d="M797 106L747 127L764 207Z" fill="#a751e0" stroke="#a751e0"></path><path d="M747 127L758 66L699 62Z" fill="#a751e0" stroke="#a751e0"></path><path d="M699 62L715 0L653 0Z" fill="#fcaf3c" stroke="#fcaf3c"></path><path d="M698 469L720 460L722 410Z" fill="#ff5a74" stroke="#ff5a74"></path><path d="M703 480L720 460L698 469Z" fill="#ff5a74" stroke="#ff5a74"></path><path d="M67 338L136 402L158 359Z" fill="#ff6e61" stroke="#ff6e61"></path><path d="M158 359L136 402L199 358Z" fill="#a751e0" stroke="#a751e0"></path><path d="M650 533L703 480L637 473Z" fill="#fcaf3c" stroke="#fcaf3c"></path><path d="M196 98L117 106L211 179Z" fill="#ff4a88" stroke="#ff4a88"></path><path d="M135 214L0 223L128 282Z" fill="#ff6e61" stroke="#ff6e61"></path><path d="M118 90L117 106L196 98Z" fill="#ff6e61" stroke="#ff6e61"></path><path d="M758 66L715 0L699 62Z" fill="#e53fb4" stroke="#e53fb4"></path><path d="M142 0L118 90L196 98Z" fill="#f5419e" stroke="#f5419e"></path><path d="M549 600L650 533L564 486Z" fill="#fcaf3c" stroke="#fcaf3c"></path><path d="M392 600L493 600L431 543Z" fill="#ff8450" stroke="#ff8450"></path><path d="M502 573L549 600L564 486Z" fill="#ff4a88" stroke="#ff4a88"></path><path d="M392 600L431 543L365 537Z" fill="#ff9a43" stroke="#ff9a43"></path><path d="M342 600L365 537L273 575Z" fill="#fcaf3c" stroke="#fcaf3c"></path><path d="M900 170L797 106L764 207Z" fill="#cb46cb" stroke="#cb46cb"></path><path d="M758 66L801 65L715 0Z" fill="#cb46cb" stroke="#cb46cb"></path><path d="M493 600L538 600L502 573Z" fill="#ff6e61" stroke="#ff6e61"></path><path d="M538 600L549 600L502 573Z" fill="#715df2" stroke="#715df2"></path><path d="M273 575L365 537L299 498Z" fill="#ff5a74" stroke="#ff5a74"></path><path d="M273 575L265 468L203 459Z" fill="#f5419e" stroke="#f5419e"></path><path d="M175 600L273 575L203 459Z" fill="#715df2" stroke="#715df2"></path><path d="M251 0L142 0L196 98Z" fill="#ff8450" stroke="#ff8450"></path><path d="M42 174L69 156L0 141Z" fill="#e53fb4" stroke="#e53fb4"></path><path d="M0 76L69 156L117 106Z" fill="#a751e0" stroke="#a751e0"></path><path d="M117 106L69 156L135 214Z" fill="#fcaf3c" stroke="#fcaf3c"></path><path d="M128 282L67 338L158 359Z" fill="#715df2" stroke="#715df2"></path><path d="M900 66L801 65L797 106Z" fill="#ff8450" stroke="#ff8450"></path><path d="M797 106L801 65L758 66Z" fill="#e53fb4" stroke="#e53fb4"></path><path d="M0 269L67 338L128 282Z" fill="#a751e0" stroke="#a751e0"></path><path d="M136 402L98 488L203 459Z" fill="#a751e0" stroke="#a751e0"></path><path d="M0 141L69 156L0 76Z" fill="#ff4a88" stroke="#ff4a88"></path><path d="M69 156L42 174L135 214Z" fill="#715df2" stroke="#715df2"></path><path d="M900 325L858 243L791 314Z" fill="#ff8450" stroke="#ff8450"></path><path d="M791 314L858 243L764 207Z" fill="#e53fb4" stroke="#e53fb4"></path><path d="M549 600L636 600L650 533Z" fill="#cb46cb" stroke="#cb46cb"></path><path d="M650 533L713 572L703 480Z" fill="#f5419e" stroke="#f5419e"></path><path d="M808 528L824 473L720 460Z" fill="#ff5a74" stroke="#ff5a74"></path><path d="M720 460L824 473L722 410Z" fill="#ff8450" stroke="#ff8450"></path><path d="M0 403L61 386L67 338Z" fill="#f5419e" stroke="#f5419e"></path><path d="M67 338L61 386L136 402Z" fill="#ff6e61" stroke="#ff6e61"></path><path d="M142 0L91 0L118 90Z" fill="#f5419e" stroke="#f5419e"></path><path d="M636 600L713 572L650 533Z" fill="#a751e0" stroke="#a751e0"></path><path d="M61 386L98 488L136 402Z" fill="#ff4a88" stroke="#ff4a88"></path><path d="M72 530L106 518L98 488Z" fill="#ff5a74" stroke="#ff5a74"></path><path d="M98 488L106 518L203 459Z" fill="#ff5a74" stroke="#ff5a74"></path><path d="M273 575L175 600L342 600Z" fill="#f5419e" stroke="#f5419e"></path><path d="M808 528L720 460L703 480Z" fill="#ff9a43" stroke="#ff9a43"></path><path d="M0 141L0 223L42 174Z" fill="#ff9a43" stroke="#ff9a43"></path><path d="M42 174L0 223L135 214Z" fill="#a751e0" stroke="#a751e0"></path><path d="M0 471L72 530L98 488Z" fill="#ff9a43" stroke="#ff9a43"></path><path d="M0 223L0 269L128 282Z" fill="#ff9a43" stroke="#ff9a43"></path><path d="M900 325L900 196L858 243Z" fill="#fcaf3c" stroke="#fcaf3c"></path><path d="M858 243L900 170L764 207Z" fill="#cb46cb" stroke="#cb46cb"></path><path d="M824 473L874 396L722 410Z" fill="#ff4a88" stroke="#ff4a88"></path><path d="M106 518L175 600L203 459Z" fill="#ff8450" stroke="#ff8450"></path><path d="M900 196L900 170L858 243Z" fill="#ff9a43" stroke="#ff9a43"></path><path d="M0 76L117 106L118 90Z" fill="#ff8450" stroke="#ff8450"></path><path d="M874 396L900 325L791 314Z" fill="#ff5a74" stroke="#ff5a74"></path><path d="M900 417L900 378L874 396Z" fill="#ff6e61" stroke="#ff6e61"></path><path d="M713 572L808 528L703 480Z" fill="#ff6e61" stroke="#ff6e61"></path><path d="M900 417L874 396L824 473Z" fill="#715df2" stroke="#715df2"></path><path d="M874 396L900 378L900 325Z" fill="#a751e0" stroke="#a751e0"></path><path d="M91 0L0 76L118 90Z" fill="#ff6e61" stroke="#ff6e61"></path><path d="M0 471L98 488L61 386Z" fill="#715df2" stroke="#715df2"></path><path d="M106 518L111 600L175 600Z" fill="#ff5a74" stroke="#ff5a74"></path><path d="M0 269L0 403L67 338Z" fill="#e53fb4" stroke="#e53fb4"></path><path d="M900 170L900 66L797 106Z" fill="#e53fb4" stroke="#e53fb4"></path><path d="M801 65L871 0L715 0Z" fill="#f5419e" stroke="#f5419e"></path><path d="M900 66L871 0L801 65Z" fill="#ff4a88" stroke="#ff4a88"></path><path d="M900 543L900 417L824 473Z" fill="#f5419e" stroke="#f5419e"></path><path d="M713 572L773 600L808 528Z" fill="#ff5a74" stroke="#ff5a74"></path><path d="M808 528L900 543L824 473Z" fill="#fcaf3c" stroke="#fcaf3c"></path><path d="M636 600L773 600L713 572Z" fill="#e53fb4" stroke="#e53fb4"></path><path d="M107 600L106 518L72 530Z" fill="#cb46cb" stroke="#cb46cb"></path><path d="M107 600L111 600L106 518Z" fill="#ff5a74" stroke="#ff5a74"></path><path d="M0 600L107 600L72 530Z" fill="#ff5a74" stroke="#ff5a74"></path><path d="M773 600L795 600L808 528Z" fill="#cb46cb" stroke="#cb46cb"></path><path d="M91 0L0 0L0 76Z" fill="#ff4a88" stroke="#ff4a88"></path><path d="M0 403L0 471L61 386Z" fill="#a751e0" stroke="#a751e0"></path><path d="M900 66L900 0L871 0Z" fill="#ff6e61" stroke="#ff6e61"></path><path d="M900 600L900 543L808 528Z" fill="#ff8450" stroke="#ff8450"></path><path d="M0 471L0 556L72 530Z" fill="#a751e0" stroke="#a751e0"></path><path d="M0 556L0 600L72 530Z" fill="#fcaf3c" stroke="#fcaf3c"></path><path d="M795 600L900 600L808 528Z" fill="#ff4a88" stroke="#ff4a88"></path></g></svg>