<svg id="visual" viewBox="0 0 900 600" width="900" height="600" xmlns="http://www.w3.org/2000/svg" xmlns:xlink="http://www.w3.org/1999/xlink" version="1.1"><path d="M0 49L82 109L164 49L245 103L327 121L409 103L491 73L573 49L655 91L736 121L818 49L900 103L900 0L818 0L736 0L655 0L573 0L491 0L409 0L327 0L245 0L164 0L82 0L0 0Z" fill="#00cc8e"></path><path d="M0 169L82 187L164 163L245 217L327 331L409 211L491 145L573 139L655 235L736 223L818 223L900 181L900 101L818 47L736 119L655 89L573 47L491 71L409 101L327 119L245 101L164 47L82 107L0 47Z" fill="#00b98a"></path><path d="M0 361L82 409L164 397L245 403L327 421L409 367L491 349L573 421L655 469L736 391L818 343L900 433L900 179L818 221L736 221L655 233L573 137L491 143L409 209L327 329L245 215L164 161L82 185L0 167Z" fill="#00a784"></path><path d="M0 517L82 559L164 517L245 517L327 505L409 505L491 499L573 535L655 529L736 511L818 499L900 559L900 431L818 341L736 389L655 467L573 419L491 347L409 365L327 419L245 401L164 395L82 407L0 359Z" fill="#00957c"></path><path d="M0 601L82 601L164 601L245 601L327 601L409 601L491 601L573 601L655 601L736 601L818 601L900 601L900 557L818 497L736 509L655 527L573 533L491 497L409 503L327 503L245 515L164 515L82 557L0 515Z" fill="#038373"></path></svg>