<svg id="visual" viewBox="0 0 900 600" width="900" height="600" xmlns="http://www.w3.org/2000/svg" xmlns:xlink="http://www.w3.org/1999/xlink" version="1.1"><path d="M0 43L13.7 55C27.3 67 54.7 91 82 104C109.3 117 136.7 119 163.8 116C191 113 218 105 245.2 101C272.3 97 299.7 97 327 96C354.3 95 381.7 93 409 97C436.3 101 463.7 111 491 104C518.3 97 545.7 73 573 61C600.3 49 627.7 49 654.8 55C682 61 709 73 736.2 85C763.3 97 790.7 109 818 106C845.3 103 872.7 85 886.3 76L900 67L900 0L886.3 0C872.7 0 845.3 0 818 0C790.7 0 763.3 0 736.2 0C709 0 682 0 654.8 0C627.7 0 600.3 0 573 0C545.7 0 518.3 0 491 0C463.7 0 436.3 0 409 0C381.7 0 354.3 0 327 0C299.7 0 272.3 0 245.2 0C218 0 191 0 163.8 0C136.7 0 109.3 0 82 0C54.7 0 27.3 0 13.7 0L0 0Z" fill="#715df2"></path><path d="M0 193L13.7 194C27.3 195 54.7 197 82 201C109.3 205 136.7 211 163.8 221C191 231 218 245 245.2 243C272.3 241 299.7 223 327 216C354.3 209 381.7 213 409 218C436.3 223 463.7 229 491 229C518.3 229 545.7 223 573 231C600.3 239 627.7 261 654.8 270C682 279 709 275 736.2 260C763.3 245 790.7 219 818 224C845.3 229 872.7 265 886.3 283L900 301L900 65L886.3 74C872.7 83 845.3 101 818 104C790.7 107 763.3 95 736.2 83C709 71 682 59 654.8 53C627.7 47 600.3 47 573 59C545.7 71 518.3 95 491 102C463.7 109 436.3 99 409 95C381.7 91 354.3 93 327 94C299.7 95 272.3 95 245.2 99C218 103 191 111 163.8 114C136.7 117 109.3 115 82 102C54.7 89 27.3 65 13.7 53L0 41Z" fill="#d942c0"></path><path d="M0 343L13.7 337C27.3 331 54.7 319 82 321C109.3 323 136.7 339 163.8 346C191 353 218 351 245.2 338C272.3 325 299.7 301 327 291C354.3 281 381.7 285 409 300C436.3 315 463.7 341 491 355C518.3 369 545.7 371 573 378C600.3 385 627.7 397 654.8 400C682 403 709 397 736.2 384C763.3 371 790.7 351 818 350C845.3 349 872.7 367 886.3 376L900 385L900 299L886.3 281C872.7 263 845.3 227 818 222C790.7 217 763.3 243 736.2 258C709 273 682 277 654.8 268C627.7 259 600.3 237 573 229C545.7 221 518.3 227 491 227C463.7 227 436.3 221 409 216C381.7 211 354.3 207 327 214C299.7 221 272.3 239 245.2 241C218 243 191 229 163.8 219C136.7 209 109.3 203 82 199C54.7 195 27.3 193 13.7 192L0 191Z" fill="#ff4a88"></path><path d="M0 523L13.7 519C27.3 515 54.7 507 82 511C109.3 515 136.7 531 163.8 532C191 533 218 519 245.2 518C272.3 517 299.7 529 327 534C354.3 539 381.7 537 409 533C436.3 529 463.7 523 491 527C518.3 531 545.7 545 573 547C600.3 549 627.7 539 654.8 538C682 537 709 545 736.2 544C763.3 543 790.7 533 818 526C845.3 519 872.7 515 886.3 513L900 511L900 383L886.3 374C872.7 365 845.3 347 818 348C790.7 349 763.3 369 736.2 382C709 395 682 401 654.8 398C627.7 395 600.3 383 573 376C545.7 369 518.3 367 491 353C463.7 339 436.3 313 409 298C381.7 283 354.3 279 327 289C299.7 299 272.3 323 245.2 336C218 349 191 351 163.8 344C136.7 337 109.3 321 82 319C54.7 317 27.3 329 13.7 335L0 341Z" fill="#ff7958"></path><path d="M0 601L13.7 601C27.3 601 54.7 601 82 601C109.3 601 136.7 601 163.8 601C191 601 218 601 245.2 601C272.3 601 299.7 601 327 601C354.3 601 381.7 601 409 601C436.3 601 463.7 601 491 601C518.3 601 545.7 601 573 601C600.3 601 627.7 601 654.8 601C682 601 709 601 736.2 601C763.3 601 790.7 601 818 601C845.3 601 872.7 601 886.3 601L900 601L900 509L886.3 511C872.7 513 845.3 517 818 524C790.7 531 763.3 541 736.2 542C709 543 682 535 654.8 536C627.7 537 600.3 547 573 545C545.7 543 518.3 529 491 525C463.7 521 436.3 527 409 531C381.7 535 354.3 537 327 532C299.7 527 272.3 515 245.2 516C218 517 191 531 163.8 530C136.7 529 109.3 513 82 509C54.7 505 27.3 513 13.7 517L0 521Z" fill="#fcaf3c"></path></svg>