<svg id="visual" viewBox="0 0 900 600" width="900" height="600" xmlns="http://www.w3.org/2000/svg" xmlns:xlink="http://www.w3.org/1999/xlink" version="1.1"><path d="M0 133L69 133L69 169L138 169L138 205L208 205L208 187L277 187L277 103L346 103L346 127L415 127L415 121L485 121L485 145L554 145L554 97L623 97L623 169L692 169L692 199L762 199L762 133L831 133L831 157L900 157L900 211L900 0L900 0L831 0L831 0L762 0L762 0L692 0L692 0L623 0L623 0L554 0L554 0L485 0L485 0L415 0L415 0L346 0L346 0L277 0L277 0L208 0L208 0L138 0L138 0L69 0L69 0L0 0Z" fill="#715df2"></path><path d="M0 199L69 199L69 259L138 259L138 247L208 247L208 247L277 247L277 181L346 181L346 211L415 211L415 163L485 163L485 217L554 217L554 193L623 193L623 247L692 247L692 247L762 247L762 229L831 229L831 217L900 217L900 265L900 209L900 155L831 155L831 131L762 131L762 197L692 197L692 167L623 167L623 95L554 95L554 143L485 143L485 119L415 119L415 125L346 125L346 101L277 101L277 185L208 185L208 203L138 203L138 167L69 167L69 131L0 131Z" fill="#c14ad2"></path><path d="M0 259L69 259L69 319L138 319L138 301L208 301L208 319L277 319L277 217L346 217L346 265L415 265L415 223L485 223L485 271L554 271L554 235L623 235L623 283L692 283L692 313L762 313L762 265L831 265L831 295L900 295L900 325L900 263L900 215L831 215L831 227L762 227L762 245L692 245L692 245L623 245L623 191L554 191L554 215L485 215L485 161L415 161L415 209L346 209L346 179L277 179L277 245L208 245L208 245L138 245L138 257L69 257L69 197L0 197Z" fill="#eb3fad"></path><path d="M0 373L69 373L69 397L138 397L138 415L208 415L208 403L277 403L277 403L346 403L346 403L415 403L415 427L485 427L485 421L554 421L554 409L623 409L623 397L692 397L692 433L762 433L762 391L831 391L831 409L900 409L900 421L900 323L900 293L831 293L831 263L762 263L762 311L692 311L692 281L623 281L623 233L554 233L554 269L485 269L485 221L415 221L415 263L346 263L346 215L277 215L277 317L208 317L208 299L138 299L138 317L69 317L69 257L0 257Z" fill="#ff4a88"></path><path d="M0 493L69 493L69 493L138 493L138 499L208 499L208 505L277 505L277 487L346 487L346 523L415 523L415 517L485 517L485 493L554 493L554 541L623 541L623 517L692 517L692 523L762 523L762 505L831 505L831 481L900 481L900 523L900 419L900 407L831 407L831 389L762 389L762 431L692 431L692 395L623 395L623 407L554 407L554 419L485 419L485 425L415 425L415 401L346 401L346 401L277 401L277 401L208 401L208 413L138 413L138 395L69 395L69 371L0 371Z" fill="#ff6767"></path><path d="M0 541L69 541L69 535L138 535L138 535L208 535L208 553L277 553L277 547L346 547L346 565L415 565L415 559L485 559L485 547L554 547L554 571L623 571L623 571L692 571L692 559L762 559L762 565L831 565L831 541L900 541L900 559L900 521L900 479L831 479L831 503L762 503L762 521L692 521L692 515L623 515L623 539L554 539L554 491L485 491L485 515L415 515L415 521L346 521L346 485L277 485L277 503L208 503L208 497L138 497L138 491L69 491L69 491L0 491Z" fill="#ff8b4b"></path><path d="M0 601L69 601L69 601L138 601L138 601L208 601L208 601L277 601L277 601L346 601L346 601L415 601L415 601L485 601L485 601L554 601L554 601L623 601L623 601L692 601L692 601L762 601L762 601L831 601L831 601L900 601L900 601L900 557L900 539L831 539L831 563L762 563L762 557L692 557L692 569L623 569L623 569L554 569L554 545L485 545L485 557L415 557L415 563L346 563L346 545L277 545L277 551L208 551L208 533L138 533L138 533L69 533L69 539L0 539Z" fill="#fcaf3c"></path></svg>